#usda 1.0

def Mesh "GeneratedOvalPlane" {
  float3[] points = [(0.5, 0.0, -0.0), (0.49899334, 0.0, -0.03171196), (0.4959774, 0.0, -0.06329622), (0.49096435, 0.0, -0.09462562), (0.48397437, 0.0, -0.12557398), (0.47503555, 0.0, -0.1560167), (0.46418396, 0.0, -0.18583123), (0.45146328, 0.0, -0.21489744), (0.4369247, 0.0, -0.24309835), (0.42062676, 0.0, -0.2703204), (0.40263516, 0.0, -0.29645395), (0.38302222, 0.0, -0.3213938), (0.361867, 0.0, -0.34503952), (0.33925474, 0.0, -0.36729583), (0.31527635, 0.0, -0.3880732), (0.29002848, 0.0, -0.40728796), (0.26361278, 0.0, -0.42486268), (0.23613557, 0.0, -0.44072667), (0.20770752, 0.0, -0.45481598), (0.17844312, 0.0, -0.46707392), (0.14846024, 0.0, -0.47745112), (0.1178795, 0.0, -0.48590577), (0.08682411, 0.0, -0.49240386), (0.055419106, 0.0, -0.49691924), (0.023790948, 0.0, -0.49943367), (-0.007932948, 0.0, -0.49993706), (-0.0396249, 0.0, -0.4984274), (-0.07115736, 0.0, -0.49491072), (-0.10240329, 0.0, -0.48940122), (-0.13323687, 0.0, -0.48192108), (-0.16353391, 0.0, -0.47250044), (-0.1931725, 0.0, -0.46117717), (-0.22203322, 0.0, -0.44799694), (-0.24999993, 0.0, -0.43301275), (-0.27695996, 0.0, -0.41628498), (-0.3028048, 0.0, -0.39788094), (-0.32743034, 0.0, -0.37787482), (-0.35073742, 0.0, -0.3563471), (-0.3726322, 0.0, -0.3333845), (-0.39302656, 0.0, -0.3090795), (-0.41183823, 0.0, -0.28353003), (-0.42899173, 0.0, -0.25683868), (-0.4444177, 0.0, -0.22911333), (-0.45805416, 0.0, -0.20046543), (-0.4698463, 0.0, -0.1710101), (-0.47974646, 0.0, -0.14086641), (-0.4877149, 0.0, -0.11015528), (-0.49371943, 0.0, -0.07900081), (-0.49773598, 0.0, -0.047528002), (-0.49974826, 0.0, -0.01586405), (-0.49974826, 0.0, 0.0158639), (-0.49773598, 0.0, 0.04752797), (-0.49371946, 0.0, 0.07900054), (-0.4877149, 0.0, 0.11015525), (-0.47974652, 0.0, 0.14086616), (-0.46984634, 0.0, 0.17100997), (-0.45805427, 0.0, 0.20046519), (-0.44441777, 0.0, 0.22911319), (-0.42899173, 0.0, 0.25683865), (-0.41183832, 0.0, 0.28352988), (-0.39302665, 0.0, 0.30907938), (-0.37263224, 0.0, 0.33338448), (-0.35073754, 0.0, 0.356347), (-0.32743037, 0.0, 0.3778748), (-0.302805, 0.0, 0.3978808), (-0.2769602, 0.0, 0.41628483), (-0.25000015, 0.0, 0.4330126), (-0.22203346, 0.0, 0.44799682), (-0.19317271, 0.0, 0.46117708), (-0.1635341, 0.0, 0.47250035), (-0.13323702, 0.0, 0.48192105), (-0.10240343, 0.0, 0.4894012), (-0.07115751, 0.0, 0.49491072), (-0.039625052, 0.0, 0.4984274), (-0.007933039, 0.0, 0.49993706), (0.023790678, 0.0, 0.4994337), (0.055419073, 0.0, 0.49691924), (0.08682384, 0.0, 0.49240392), (0.11787947, 0.0, 0.4859058), (0.14845997, 0.0, 0.47745118), (0.17844293, 0.0, 0.467074), (0.20770733, 0.0, 0.45481607), (0.2361356, 0.0, 0.44072664), (0.2636126, 0.0, 0.4248628), (0.29002833, 0.0, 0.40728804), (0.31527624, 0.0, 0.38807333), (0.33925444, 0.0, 0.3672961), (0.36186695, 0.0, 0.34503958), (0.38302216, 0.0, 0.32139388), (0.4026351, 0.0, 0.296454), (0.4206266, 0.0, 0.27032065), (0.43692467, 0.0, 0.2430984), (0.45146325, 0.0, 0.21489747), (0.46418387, 0.0, 0.18583146), (0.4750355, 0.0, 0.15601695), (0.48397437, 0.0, 0.12557396), (0.49096435, 0.0, 0.094625585), (0.49597737, 0.0, 0.06329641), (0.49899334, 0.0, 0.031712126), (0.5, 0.0, -8.742278e-08)]
  int[] faceVertexIndices = [0, 1, 2, 0, 2, 3, 0, 3, 4, 0, 4, 5, 0, 5, 6, 0, 6, 7, 0, 7, 8, 0, 8, 9, 0, 9, 10, 0, 10, 11, 0, 11, 12, 0, 12, 13, 0, 13, 14, 0, 14, 15, 0, 15, 16, 0, 16, 17, 0, 17, 18, 0, 18, 19, 0, 19, 20, 0, 20, 21, 0, 21, 22, 0, 22, 23, 0, 23, 24, 0, 24, 25, 0, 25, 26, 0, 26, 27, 0, 27, 28, 0, 28, 29, 0, 29, 30, 0, 30, 31, 0, 31, 32, 0, 32, 33, 0, 33, 34, 0, 34, 35, 0, 35, 36, 0, 36, 37, 0, 37, 38, 0, 38, 39, 0, 39, 40, 0, 40, 41, 0, 41, 42, 0, 42, 43, 0, 43, 44, 0, 44, 45, 0, 45, 46, 0, 46, 47, 0, 47, 48, 0, 48, 49, 0, 49, 50, 0, 50, 51, 0, 51, 52, 0, 52, 53, 0, 53, 54, 0, 54, 55, 0, 55, 56, 0, 56, 57, 0, 57, 58, 0, 58, 59, 0, 59, 60, 0, 60, 61, 0, 61, 62, 0, 62, 63, 0, 63, 64, 0, 64, 65, 0, 65, 66, 0, 66, 67, 0, 67, 68, 0, 68, 69, 0, 69, 70, 0, 70, 71, 0, 71, 72, 0, 72, 73, 0, 73, 74, 0, 74, 75, 0, 75, 76, 0, 76, 77, 0, 77, 78, 0, 78, 79, 0, 79, 80, 0, 80, 81, 0, 81, 82, 0, 82, 83, 0, 83, 84, 0, 84, 85, 0, 85, 86, 0, 86, 87, 0, 87, 88, 0, 88, 89, 0, 89, 90, 0, 90, 91, 0, 91, 92, 0, 92, 93, 0, 93, 94, 0, 94, 95, 0, 95, 96, 0, 96, 97, 0, 97, 98, 0, 98, 99]
  int[] faceVertexCounts = [3, 3, 3, 3, 3, 3, 3, 3, 3, 3, 3, 3, 3, 3, 3, 3, 3, 3, 3, 3, 3, 3, 3, 3, 3, 3, 3, 3, 3, 3, 3, 3, 3, 3, 3, 3, 3, 3, 3, 3, 3, 3, 3, 3, 3, 3, 3, 3, 3, 3, 3, 3, 3, 3, 3, 3, 3, 3, 3, 3, 3, 3, 3, 3, 3, 3, 3, 3, 3, 3, 3, 3, 3, 3, 3, 3, 3, 3, 3, 3, 3, 3, 3, 3, 3, 3, 3, 3, 3, 3, 3, 3, 3, 3, 3, 3, 3, 3]
}
